<svg width="145" height="40" viewBox="0 0 145 40" fill="none" xmlns="http://www.w3.org/2000/svg">
<g clip-path="url(#clip0_11796_41063)">
<path d="M4.81013 18.9873L0 16.2025V29.6203L16.7089 39.7468L23.038 35.6962V16.2025L11.8987 9.36709L16.7089 6.32911L28.3544 13.4177V32.9114L33.4177 29.6203V10.1266L16.7089 0L0 10.1266L16.7089 20.2532V33.1646L4.81013 26.3291V18.9873Z" fill="white"/>
<path d="M49.0909 27.5797C47.7136 27.5797 46.4985 27.2962 45.4453 26.7291C44.4057 26.1485 43.5888 25.3316 42.9947 24.2785C42.4141 23.2118 42.1238 21.9561 42.1238 20.5114C42.1238 19.1072 42.4141 17.8785 42.9947 16.8253C43.5753 15.7721 44.4124 14.9553 45.5061 14.3747C46.6132 13.7806 47.95 13.4835 49.5162 13.4835C50.2318 13.4835 50.8936 13.5645 51.5012 13.7266C52.122 13.8886 52.7093 14.1249 53.2633 14.4354L53.3443 17.2709H53.1418L52.0076 15.1645C51.8319 14.827 51.6699 14.5839 51.5215 14.4354C51.3726 14.2869 51.1838 14.1721 50.9544 14.0911C50.7382 14.0236 50.5356 13.9763 50.3466 13.9493C50.1711 13.9088 49.9348 13.8886 49.6377 13.8886C48.8006 13.8886 48.058 14.1114 47.4099 14.5569C46.7753 15.0025 46.2825 15.7114 45.9314 16.6835C45.5803 17.6557 45.4048 18.9316 45.4048 20.5114C45.4048 22.0776 45.5668 23.3535 45.8909 24.3392C46.2284 25.3249 46.701 26.0472 47.3086 26.5063C47.9162 26.9519 48.6183 27.1747 49.4149 27.1747C49.5364 27.1747 49.6512 27.1679 49.7592 27.1544C49.8807 27.1274 49.9955 27.1004 50.1035 27.0734C50.3601 27.0329 50.5288 26.9249 50.6099 26.7493C50.6911 26.5738 50.7316 26.3645 50.7316 26.1215V22.1114C50.7316 21.5848 50.4613 21.2607 49.9212 21.1392L48.9896 20.8962V20.6936H54.7012V20.8962L54.4177 20.9772C53.9043 21.1392 53.6481 21.4768 53.6481 21.9899V26.3848C52.9458 26.7763 52.2304 27.0734 51.5012 27.2759C50.7853 27.4785 49.982 27.5797 49.0909 27.5797ZM54.8526 27.2152V27.0126L55.2577 26.8709C55.5276 26.7899 55.7033 26.6683 55.7843 26.5063C55.879 26.3443 55.9261 26.1282 55.9261 25.8582V15.2455C55.9261 14.9755 55.879 14.7595 55.7843 14.5974C55.6896 14.4354 55.5073 14.3072 55.2374 14.2126L54.8526 14.0506V13.8481H59.7742C61.7858 13.8481 63.2374 14.2194 64.1286 14.962C65.0334 15.6911 65.4855 16.6565 65.4855 17.8582C65.4855 18.6278 65.2967 19.3367 64.9185 19.9848C64.5539 20.6194 63.9463 21.1257 63.0957 21.5038C62.245 21.8819 61.0972 22.0709 59.6526 22.0709H58.964V25.7974C58.964 26.324 59.2273 26.6683 59.7539 26.8304L60.3615 27.0126V27.2152H54.8526ZM58.964 21.6658H59.7336C60.3954 21.6658 60.9352 21.5578 61.3539 21.3417C61.7726 21.1257 62.083 20.7477 62.2855 20.2076C62.4881 19.6675 62.5893 18.9181 62.5893 17.9595C62.5893 16.9873 62.4744 16.2312 62.245 15.6911C62.0288 15.151 61.7048 14.7797 61.2729 14.5772C60.841 14.3611 60.3007 14.2531 59.6526 14.2531H58.964V21.6658ZM68.6921 27.2152V27.0126L69.5225 26.8101C70.0764 26.6886 70.3529 26.351 70.3529 25.7974V14.2531H68.6314C68.1321 14.2531 67.7742 14.3882 67.558 14.6582C67.3423 14.9148 67.1124 15.2725 66.8693 15.7316L66.1402 17.1493H65.9377L66.039 13.8481H77.725L77.8061 17.1493H77.6035L76.8744 15.7316C76.645 15.2725 76.4223 14.9148 76.2061 14.6582C75.9904 14.3882 75.6324 14.2531 75.1326 14.2531H73.4111V25.7974C73.4111 26.351 73.6881 26.6886 74.2415 26.8101L75.0719 27.0126V27.2152H68.6921Z" fill="white"/>
<path d="M78.6355 22.3545V21.8076H83.7393V22.3545H78.6355Z" fill="white"/>
<path d="M88.3985 27.519C87.5342 27.519 86.8593 27.3029 86.3732 26.8709C85.9003 26.4388 85.6643 25.7502 85.6643 24.8051V17.8785H84.2668V17.6759L84.7529 17.5949C85.1711 17.5004 85.5291 17.3654 85.8263 17.1899C86.1367 17.0143 86.4405 16.7781 86.7377 16.481L88.3985 14.638H88.601L88.5403 17.4734H90.8086V17.8785H88.52V25.1696C88.52 25.6422 88.6213 26 88.8238 26.243C89.0395 26.4861 89.3099 26.6076 89.6339 26.6076C89.9175 26.6076 90.1671 26.5401 90.3833 26.4051C90.599 26.2565 90.8152 26.0607 91.0314 25.8177L91.2339 26.0202C90.9636 26.4793 90.5924 26.8439 90.12 27.1139C89.6471 27.3839 89.0734 27.519 88.3985 27.519ZM91.4633 27.2152V27.0126L91.7671 26.9316C92.037 26.8506 92.2193 26.7291 92.3139 26.5671C92.4218 26.4051 92.476 26.1958 92.476 25.9392V19.6C92.476 19.3029 92.4218 19.0869 92.3139 18.9519C92.2193 18.8034 92.037 18.7021 91.7671 18.6481L91.4633 18.5671V18.3645L94.9468 17.1899L95.1494 17.3924L95.3317 19.1342V19.2962C95.5205 18.9181 95.7636 18.5738 96.0608 18.2633C96.3711 17.9392 96.7089 17.6759 97.0734 17.4734C97.4517 17.2709 97.8228 17.1696 98.1874 17.1696C98.7003 17.1696 99.0922 17.3114 99.362 17.5949C99.6319 17.8785 99.7671 18.2363 99.7671 18.6683C99.7671 19.1274 99.6319 19.4852 99.362 19.7418C99.1053 19.9848 98.7949 20.1063 98.4304 20.1063C97.8633 20.1063 97.3636 19.8228 96.9317 19.2557L96.8911 19.2152C96.756 19.0262 96.601 18.9249 96.4253 18.9114C96.2496 18.8844 96.0876 18.9654 95.9392 19.1544C95.8041 19.2759 95.6896 19.4244 95.5949 19.6C95.5139 19.762 95.4329 19.951 95.3519 20.1671V25.8177C95.3519 26.3578 95.5884 26.6953 96.0608 26.8304L96.7089 27.0126V27.2152H91.4633ZM102.52 27.519C101.737 27.519 101.075 27.2962 100.535 26.8506C100.009 26.4051 99.7453 25.7637 99.7453 24.9266C99.7453 24.292 100.069 23.7114 100.717 23.1848C101.366 22.6447 102.385 22.2396 103.776 21.9696C103.991 21.9291 104.234 21.8886 104.505 21.8481C104.775 21.7941 105.058 21.7401 105.355 21.6861V20.0861C105.355 19.1679 105.241 18.5266 105.011 18.162C104.795 17.7839 104.451 17.5949 103.978 17.5949C103.654 17.5949 103.397 17.7029 103.209 17.919C103.019 18.1215 102.898 18.4793 102.844 18.9924L102.804 19.2152C102.776 19.7958 102.634 20.2211 102.378 20.4911C102.122 20.7612 101.804 20.8962 101.426 20.8962C101.075 20.8962 100.785 20.7882 100.555 20.5721C100.326 20.3561 100.211 20.0658 100.211 19.7013C100.211 19.1477 100.4 18.6819 100.778 18.3038C101.17 17.9257 101.683 17.6422 102.317 17.4532C102.952 17.2641 103.641 17.1696 104.383 17.1696C105.585 17.1696 106.51 17.4667 107.158 18.0607C107.819 18.6414 108.15 19.5933 108.15 20.9164V25.3924C108.15 26 108.434 26.3038 109.001 26.3038H109.447L109.629 26.4658C109.372 26.7899 109.089 27.0396 108.778 27.2152C108.481 27.3907 108.056 27.4785 107.502 27.4785C106.908 27.4785 106.435 27.3434 106.085 27.0734C105.747 26.7899 105.524 26.4186 105.416 25.9595C105.011 26.3915 104.592 26.7629 104.161 27.0734C103.742 27.3705 103.195 27.519 102.52 27.519ZM103.755 26.2835C104.025 26.2835 104.275 26.2228 104.505 26.1013C104.748 25.9662 105.031 25.7637 105.355 25.4937V22.0911C105.22 22.1181 105.085 22.1452 104.95 22.1721C104.815 22.1991 104.66 22.2262 104.485 22.2532C103.863 22.4152 103.364 22.692 102.986 23.0835C102.621 23.4616 102.439 23.9747 102.439 24.6228C102.439 25.1763 102.567 25.5949 102.824 25.8785C103.08 26.1485 103.391 26.2835 103.755 26.2835ZM112.071 16.1164C111.612 16.1164 111.22 15.9747 110.896 15.6911C110.586 15.3941 110.43 15.0228 110.43 14.5772C110.43 14.1181 110.586 13.7468 110.896 13.4633C111.22 13.1797 111.612 13.038 112.071 13.038C112.53 13.038 112.915 13.1797 113.225 13.4633C113.536 13.7468 113.691 14.1181 113.691 14.5772C113.691 15.0228 113.536 15.3941 113.225 15.6911C112.915 15.9747 112.53 16.1164 112.071 16.1164ZM109.681 27.2152V27.0126L109.965 26.9316C110.234 26.8506 110.417 26.7291 110.511 26.5671C110.619 26.4051 110.673 26.189 110.673 25.919V19.5797C110.673 19.2962 110.619 19.0869 110.511 18.9519C110.417 18.8034 110.234 18.7021 109.965 18.6481L109.681 18.5873V18.3848L113.387 17.1899L113.59 17.3924L113.529 20.2683V25.9392C113.529 26.2093 113.576 26.4253 113.671 26.5873C113.779 26.7494 113.961 26.8709 114.218 26.9519L114.42 27.0126V27.2152H109.681ZM114.912 27.2152V27.0126L115.195 26.9316C115.668 26.7966 115.904 26.4658 115.904 25.9392V19.6C115.904 19.3029 115.857 19.0869 115.763 18.9519C115.668 18.8034 115.486 18.7021 115.216 18.6481L114.912 18.5671V18.3645L118.375 17.1899L118.578 17.3924L118.74 18.6076C119.212 18.189 119.745 17.8447 120.34 17.5747C120.934 17.3046 121.521 17.1696 122.102 17.1696C122.993 17.1696 123.674 17.4126 124.147 17.8987C124.633 18.3848 124.876 19.1274 124.876 20.1266V25.9595C124.876 26.4861 125.133 26.8168 125.646 26.9519L125.828 27.0126V27.2152H121.049V27.0126L121.312 26.9316C121.784 26.7831 122.021 26.4523 122.021 25.9392V19.4785C122.021 18.6143 121.588 18.1823 120.725 18.1823C120.13 18.1823 119.482 18.4793 118.78 19.0734V25.9595C118.78 26.4861 119.016 26.8168 119.489 26.9519L119.671 27.0126V27.2152H114.912ZM131.299 17.1696C132.177 17.1696 132.926 17.3519 133.547 17.7164C134.168 18.0675 134.641 18.5536 134.965 19.1747C135.302 19.7823 135.471 20.4776 135.471 21.2607C135.471 21.4093 135.464 21.5645 135.451 21.7266C135.437 21.8751 135.411 22.0101 135.37 22.1316H129.335C129.348 23.5899 129.605 24.643 130.104 25.2911C130.617 25.9257 131.373 26.243 132.373 26.243C133.048 26.243 133.594 26.135 134.013 25.919C134.431 25.7029 134.823 25.3857 135.188 24.9671L135.39 25.1494C134.972 25.892 134.411 26.4725 133.709 26.8911C133.021 27.3097 132.19 27.519 131.218 27.519C130.259 27.519 129.409 27.3164 128.666 26.9114C127.924 26.4928 127.343 25.8987 126.925 25.1291C126.506 24.3595 126.297 23.4414 126.297 22.3747C126.297 21.2675 126.54 20.3291 127.026 19.5595C127.512 18.7763 128.133 18.1823 128.889 17.7772C129.659 17.3721 130.462 17.1696 131.299 17.1696ZM131.238 17.5747C130.847 17.5747 130.509 17.6962 130.226 17.9392C129.955 18.1687 129.74 18.5873 129.578 19.1949C129.429 19.789 129.348 20.6329 129.335 21.7266H132.798C132.933 20.2548 132.879 19.1949 132.636 18.5468C132.393 17.8987 131.927 17.5747 131.238 17.5747ZM136.075 27.2152V27.0126L136.379 26.9316C136.65 26.8506 136.832 26.7291 136.926 26.5671C137.034 26.4051 137.088 26.1958 137.088 25.9392V19.6C137.088 19.3029 137.034 19.0869 136.926 18.9519C136.832 18.8034 136.65 18.7021 136.379 18.6481L136.075 18.5671V18.3645L139.559 17.1899L139.762 17.3924L139.944 19.1342V19.2962C140.133 18.9181 140.376 18.5738 140.673 18.2633C140.984 17.9392 141.321 17.6759 141.686 17.4734C142.064 17.2709 142.435 17.1696 142.799 17.1696C143.313 17.1696 143.704 17.3114 143.974 17.5949C144.245 17.8785 144.379 18.2363 144.379 18.6683C144.379 19.1274 144.245 19.4852 143.974 19.7418C143.718 19.9848 143.407 20.1063 143.043 20.1063C142.475 20.1063 141.976 19.8228 141.544 19.2557L141.503 19.2152C141.369 19.0262 141.213 18.9249 141.037 18.9114C140.862 18.8844 140.7 18.9654 140.551 19.1544C140.417 19.2759 140.302 19.4244 140.207 19.6C140.126 19.762 140.045 19.951 139.964 20.1671V25.8177C139.964 26.3578 140.201 26.6953 140.673 26.8304L141.321 27.0126V27.2152H136.075Z" fill="white"/>
</g>
<defs>
<clipPath id="clip0_11796_41063">
<rect width="144.81" height="40" fill="white"/>
</clipPath>
</defs>
</svg>
