<?xml version="1.0" encoding="UTF-8"?>
<svg id="Ebene_1" xmlns="http://www.w3.org/2000/svg" version="1.1" viewBox="0 0 260 40">
  <!-- Generator: Adobe Illustrator 29.6.1, SVG Export Plug-In . SVG Version: 2.1.1 Build 9)  -->
  <defs>
    <style>
      .st0 {
        fill: #fff;
      }

      .st1 {
        fill: #c0442d;
      }
    </style>
  </defs>
  <g>
    <path class="st0" d="M58.82,34.79h-6.83V6.16h6.83v28.63Z"/>
    <path class="st0" d="M90.45,34.79h-6.56l-13.05-17.46v17.46h-6.83V6.16h6.54l13.05,17.46V6.16h6.85v28.63Z"/>
  </g>
  <g>
    <path class="st0" d="M110.21,34.73h-6.56l-13.05-17.46v17.46h-6.83V6.1h6.54l13.05,17.46V6.1h6.85v28.63Z"/>
    <path class="st0" d="M144.4,20.41c0,8.55-6.26,14.85-15.09,14.85s-15.09-6.3-15.09-14.85,6.26-14.85,15.09-14.85,15.09,6.3,15.09,14.85ZM121.34,20.41c0,4.91,3.31,8.3,7.97,8.3s7.97-3.39,7.97-8.3-3.31-8.3-7.97-8.3-7.97,3.39-7.97,8.3Z"/>
    <path class="st0" d="M175.02,12.46l-5.99,3.44c-1.49-2.43-3.84-3.78-6.81-3.78-4.52,0-7.87,3.39-7.87,8.3,0,5.32,3.66,8.3,7.89,8.3,2.9,0,5.27-1.33,6.91-3.76l5.6,3.97c-2.62,3.9-6.97,6.34-12.45,6.34-8.83,0-15.07-6.17-15.07-14.85s6.24-14.85,15.07-14.85c5.46,0,10.28,2.56,12.72,6.89Z"/>
    <path class="st0" d="M185.67,17.12h12.04V6.1h6.83v28.63h-6.83v-11.29h-12.04v11.29h-6.83V6.1h6.83v11.02Z"/>
    <path class="st0" d="M237.51,34.86h-7.28l-2.17-6.01h-11.37l-2.17,6.01h-7.14l10.98-28.63h8.16l10.98,28.63ZM218.9,22.68h6.95l-3.48-9.65-3.48,9.65Z"/>
    <path class="st0" d="M258.98,12.58h-8.47v22.29h-6.83V12.58h-8.49v-6.34h23.78v6.34Z"/>
  </g>
  <g>
    <g>
      <path class="st1" d="M1.63,34.63l8.46-14.14v-.07L1.63,6.27l5.72-.07,8.65,14.21-8.64,14.16-5.73.06Z"/>
      <path class="st1" d="M35.9,34.57l-8.64-14.16,8.65-14.21,5.72.07-8.46,14.14v.07s8.46,14.14,8.46,14.14l-5.73-.06Z"/>
    </g>
    <g>
      <path class="st1" d="M35.76,6.15l-14.16,8.64L7.39,6.14l.07-5.72,14.14,8.46h.07S35.82.41,35.82.41l-.06,5.73Z"/>
      <path class="st1" d="M35.82,40.41l-14.14-8.46h-.07s-14.14,8.46-14.14,8.46l-.07-5.72,14.21-8.65,14.16,8.64.06,5.73Z"/>
    </g>
  </g>
</svg>