<svg width="312" height="75" viewBox="0 0 312 75" fill="none" xmlns="http://www.w3.org/2000/svg">
<rect width="312" height="94.2212" fill="white"/>
<path d="M48 41.7778C48 42.4533 47.6267 43.04 47.0578 43.3422L33.0133 51.2356C32.7289 51.4489 32.3733 51.5556 32 51.5556C31.6267 51.5556 31.2711 51.4489 30.9867 51.2356L16.9422 43.3422C16.6572 43.1924 16.4187 42.9674 16.2526 42.6916C16.0865 42.4158 15.9991 42.0997 16 41.7778V25.7778C16 25.1022 16.3733 24.5156 16.9422 24.2133L30.9867 16.32C31.2711 16.1067 31.6267 16 32 16C32.3733 16 32.7289 16.1067 33.0133 16.32L47.0578 24.2133C47.6267 24.5156 48 25.1022 48 25.7778V41.7778Z" fill="#2E3F51"/>
<path d="M80 41.7778C80 42.4533 79.6267 43.04 79.0578 43.3422L65.0133 51.2356C64.7289 51.4489 64.3733 51.5556 64 51.5556C63.6267 51.5556 63.2711 51.4489 62.9867 51.2356L48.9422 43.3422C48.6572 43.1924 48.4187 42.9674 48.2526 42.6916C48.0865 42.4158 47.9991 42.0997 48 41.7778V25.7778C48 25.1022 48.3733 24.5156 48.9422 24.2133L62.9867 16.32C63.2711 16.1067 63.6267 16 64 16C64.3733 16 64.7289 16.1067 65.0133 16.32L79.0578 24.2133C79.6267 24.5156 80 25.1022 80 25.7778V41.7778Z" fill="#2E3F51"/>
<path d="M64 68.4438C64 69.1193 63.6267 69.706 63.0578 70.0082L49.0133 77.9016C48.7289 78.1149 48.3733 78.2216 48 78.2216C47.6267 78.2216 47.2711 78.1149 46.9867 77.9016L32.9422 70.0082C32.6572 69.8585 32.4187 69.6334 32.2526 69.3576C32.0865 69.0818 31.9991 68.7658 32 68.4438V52.4438C32 51.7682 32.3733 51.1816 32.9422 50.8793L46.9867 42.986C47.2711 42.7727 47.6267 42.666 48 42.666C48.3733 42.666 48.7289 42.7727 49.0133 42.986L63.0578 50.8793C63.6267 51.1816 64 51.7682 64 52.4438V68.4438Z" fill="#2E3F51"/>
<path d="M64 50.6655C64 51.341 63.6267 51.9277 63.0578 52.2299L49.0133 60.1232C48.7289 60.3366 48.3733 60.4432 48 60.4432C47.6267 60.4432 47.2711 60.3366 46.9867 60.1232L32.9422 52.2299C32.6572 52.0801 32.4187 51.8551 32.2526 51.5793C32.0865 51.3035 31.9991 50.9874 32 50.6655V34.6655C32 33.9899 32.3733 33.4032 32.9422 33.101L46.9867 25.2077C47.2711 24.9944 47.6267 24.8877 48 24.8877C48.3733 24.8877 48.7289 24.9944 49.0133 25.2077L63.0578 33.101C63.6267 33.4032 64 33.9899 64 34.6655V50.6655Z" fill="white"/>
<path d="M53.2264 45.8407C53.2264 46.0636 53.1032 46.2572 52.9154 46.3569L48.2808 48.9617C48.1869 49.0321 48.0696 49.0673 47.9464 49.0673C47.8232 49.0673 47.7059 49.0321 47.612 48.9617L42.9773 46.3569C42.8833 46.3075 42.8046 46.2332 42.7497 46.1422C42.6949 46.0512 42.6661 45.9469 42.6664 45.8407V40.5607C42.6664 40.3377 42.7896 40.1441 42.9773 40.0444L47.612 37.4396C47.7059 37.3692 47.8232 37.334 47.9464 37.334C48.0696 37.334 48.1869 37.3692 48.2808 37.4396L52.9154 40.0444C53.1032 40.1441 53.2264 40.3377 53.2264 40.5607V45.8407Z" fill="#ED727B"/>
<path d="M116.805 48.4704H120.685V61.4304C120.365 61.537 119.899 61.657 119.285 61.7904C118.699 61.9237 118.005 62.057 117.205 62.1904C116.432 62.3237 115.579 62.4304 114.645 62.5104C113.712 62.617 112.765 62.6704 111.805 62.6704C109.859 62.6704 108.085 62.3504 106.485 61.7104C104.885 61.0704 103.512 60.137 102.365 58.9104C101.219 57.6837 100.325 56.177 99.6853 54.3904C99.072 52.6037 98.7653 50.5504 98.7653 48.2304C98.7653 45.9104 99.112 43.857 99.8053 42.0703C100.525 40.257 101.485 38.737 102.685 37.5104C103.885 36.2837 105.285 35.3504 106.885 34.7103C108.512 34.0703 110.245 33.7503 112.085 33.7503C113.339 33.7503 114.445 33.8304 115.405 33.9904C116.392 34.1504 117.232 34.337 117.925 34.5504C118.619 34.7637 119.179 34.977 119.605 35.1904C120.059 35.4037 120.365 35.5637 120.525 35.6704L119.285 38.9103C118.512 38.4037 117.485 37.9904 116.205 37.6704C114.925 37.3237 113.619 37.1504 112.285 37.1504C110.872 37.1504 109.579 37.4037 108.405 37.9104C107.259 38.417 106.272 39.1504 105.445 40.1104C104.645 41.0704 104.019 42.2437 103.565 43.6304C103.112 44.9904 102.885 46.5237 102.885 48.2304C102.885 49.8837 103.072 51.3904 103.445 52.7504C103.845 54.1104 104.432 55.2837 105.205 56.2704C106.005 57.2304 106.979 57.977 108.125 58.5104C109.299 59.0437 110.672 59.3104 112.245 59.3104C113.365 59.3104 114.312 59.257 115.085 59.1504C115.885 59.017 116.459 58.897 116.805 58.7904V48.4704ZM133.32 34.1103C137.214 34.1103 140.2 34.857 142.28 36.3503C144.387 37.817 145.44 40.017 145.44 42.9504C145.44 44.5504 145.147 45.9237 144.56 47.0704C144 48.1904 143.174 49.1104 142.08 49.8304C141.014 50.5237 139.707 51.0304 138.16 51.3504C136.614 51.6704 134.867 51.8304 132.92 51.8304H129.84V62.1104H125.96V34.7904C127.054 34.5237 128.267 34.3504 129.6 34.2703C130.96 34.1637 132.2 34.1103 133.32 34.1103ZM133.64 37.5104C131.987 37.5104 130.72 37.5504 129.84 37.6303V48.5104H132.76C134.094 48.5104 135.294 48.4304 136.36 48.2704C137.427 48.0837 138.32 47.7904 139.04 47.3904C139.787 46.9637 140.36 46.3904 140.76 45.6704C141.16 44.9504 141.36 44.0304 141.36 42.9104C141.36 41.8437 141.147 40.9637 140.72 40.2704C140.32 39.577 139.76 39.0304 139.04 38.6304C138.347 38.2037 137.534 37.9104 136.6 37.7504C135.667 37.5904 134.68 37.5104 133.64 37.5104ZM168.016 34.3904V37.7504H159.296V62.1104H155.416V37.7504H146.696V34.3904H168.016ZM166.96 48.3904H176.84V51.8704H166.96V48.3904ZM183.753 41.3103H191.633V44.4304H183.753V54.0304C183.753 55.0704 183.833 55.937 183.993 56.6304C184.153 57.297 184.393 57.8304 184.713 58.2304C185.033 58.6037 185.433 58.8704 185.913 59.0304C186.393 59.1904 186.953 59.2704 187.593 59.2704C188.713 59.2704 189.607 59.1504 190.273 58.9104C190.967 58.6437 191.447 58.457 191.713 58.3504L192.433 61.4304C192.06 61.617 191.407 61.8437 190.473 62.1104C189.54 62.4037 188.473 62.5504 187.273 62.5504C185.86 62.5504 184.687 62.377 183.753 62.0304C182.847 61.657 182.113 61.1104 181.553 60.3904C180.993 59.6704 180.593 58.7904 180.353 57.7504C180.14 56.6837 180.033 55.457 180.033 54.0704V35.5104L183.753 34.8703V41.3103ZM203.247 40.8704C203.567 40.8704 203.927 40.897 204.327 40.9503C204.754 40.977 205.167 41.0304 205.567 41.1104C205.967 41.1637 206.327 41.2304 206.647 41.3103C206.994 41.3637 207.247 41.417 207.407 41.4704L206.767 44.7104C206.474 44.6037 205.981 44.4837 205.287 44.3504C204.621 44.1904 203.754 44.1104 202.687 44.1104C201.994 44.1104 201.301 44.1904 200.607 44.3504C199.941 44.4837 199.501 44.577 199.287 44.6304V62.1104H195.567V42.1904C196.447 41.8703 197.541 41.577 198.847 41.3103C200.154 41.017 201.621 40.8704 203.247 40.8704ZM217.237 59.4304C218.117 59.4304 218.89 59.417 219.557 59.3904C220.25 59.337 220.824 59.257 221.277 59.1504V52.9504C221.01 52.817 220.57 52.7104 219.957 52.6304C219.37 52.5237 218.65 52.4704 217.797 52.4704C217.237 52.4704 216.637 52.5104 215.997 52.5904C215.384 52.6704 214.81 52.8437 214.277 53.1104C213.77 53.3504 213.344 53.697 212.997 54.1504C212.65 54.577 212.477 55.1504 212.477 55.8704C212.477 57.2037 212.904 58.137 213.757 58.6704C214.61 59.177 215.77 59.4304 217.237 59.4304ZM216.917 40.7903C218.41 40.7903 219.664 40.9904 220.677 41.3904C221.717 41.7637 222.544 42.3104 223.157 43.0304C223.797 43.7237 224.25 44.5637 224.517 45.5504C224.784 46.5104 224.917 47.577 224.917 48.7504V61.7504C224.597 61.8037 224.144 61.8837 223.557 61.9904C222.997 62.0704 222.357 62.1504 221.637 62.2304C220.917 62.3104 220.13 62.377 219.277 62.4304C218.45 62.5104 217.624 62.5504 216.797 62.5504C215.624 62.5504 214.544 62.4304 213.557 62.1904C212.57 61.9504 211.717 61.577 210.997 61.0704C210.277 60.537 209.717 59.8437 209.317 58.9904C208.917 58.137 208.717 57.1104 208.717 55.9104C208.717 54.7637 208.944 53.777 209.397 52.9504C209.877 52.1237 210.517 51.457 211.317 50.9504C212.117 50.4437 213.05 50.0704 214.117 49.8304C215.184 49.5904 216.304 49.4704 217.477 49.4704C217.85 49.4704 218.237 49.497 218.637 49.5504C219.037 49.577 219.41 49.6304 219.757 49.7104C220.13 49.7637 220.45 49.817 220.717 49.8704C220.984 49.9237 221.17 49.9637 221.277 49.9904V48.9504C221.277 48.337 221.21 47.737 221.077 47.1504C220.944 46.537 220.704 46.0037 220.357 45.5504C220.01 45.0704 219.53 44.697 218.917 44.4304C218.33 44.137 217.557 43.9904 216.597 43.9904C215.37 43.9904 214.29 44.0837 213.357 44.2704C212.45 44.4304 211.77 44.6037 211.317 44.7904L210.877 41.7103C211.357 41.497 212.157 41.297 213.277 41.1104C214.397 40.897 215.61 40.7903 216.917 40.7903ZM234.015 62.1104H230.295V41.3103H234.015V62.1104ZM232.135 37.5504C231.469 37.5504 230.895 37.337 230.415 36.9103C229.962 36.457 229.735 35.857 229.735 35.1104C229.735 34.3637 229.962 33.777 230.415 33.3503C230.895 32.897 231.469 32.6703 232.135 32.6703C232.802 32.6703 233.362 32.897 233.815 33.3503C234.295 33.777 234.535 34.3637 234.535 35.1104C234.535 35.857 234.295 36.457 233.815 36.9103C233.362 37.337 232.802 37.5504 232.135 37.5504ZM239.613 41.9104C240.466 41.697 241.599 41.4704 243.013 41.2304C244.426 40.9904 246.053 40.8704 247.893 40.8704C249.546 40.8704 250.919 41.1104 252.013 41.5904C253.106 42.0437 253.973 42.697 254.613 43.5504C255.279 44.377 255.746 45.377 256.013 46.5504C256.279 47.7237 256.413 49.017 256.413 50.4304V62.1104H252.693V51.2304C252.693 49.9504 252.599 48.857 252.413 47.9504C252.253 47.0437 251.973 46.3104 251.573 45.7504C251.173 45.1904 250.639 44.7904 249.973 44.5504C249.306 44.2837 248.479 44.1504 247.493 44.1504C247.093 44.1504 246.679 44.1637 246.253 44.1904C245.826 44.217 245.413 44.257 245.013 44.3104C244.639 44.337 244.293 44.377 243.973 44.4304C243.679 44.4837 243.466 44.5237 243.333 44.5504V62.1104H239.613V41.9104ZM260.621 51.7504C260.621 49.9104 260.888 48.3104 261.421 46.9504C261.955 45.5637 262.661 44.417 263.541 43.5104C264.421 42.6037 265.435 41.9237 266.581 41.4704C267.728 41.017 268.901 40.7903 270.101 40.7903C272.901 40.7903 275.048 41.6704 276.541 43.4304C278.035 45.1637 278.781 47.817 278.781 51.3904C278.781 51.5504 278.781 51.7637 278.781 52.0304C278.781 52.2704 278.768 52.497 278.741 52.7104H264.501C264.661 54.8704 265.288 56.5104 266.381 57.6304C267.475 58.7504 269.181 59.3104 271.501 59.3104C272.808 59.3104 273.901 59.2037 274.781 58.9904C275.688 58.7504 276.368 58.5237 276.821 58.3104L277.341 61.4304C276.888 61.6704 276.088 61.9237 274.941 62.1904C273.821 62.457 272.541 62.5904 271.101 62.5904C269.288 62.5904 267.715 62.3237 266.381 61.7904C265.075 61.2304 263.995 60.4704 263.141 59.5104C262.288 58.5504 261.648 57.417 261.221 56.1104C260.821 54.777 260.621 53.3237 260.621 51.7504ZM274.901 49.7104C274.928 48.0304 274.501 46.657 273.621 45.5904C272.768 44.497 271.581 43.9504 270.061 43.9504C269.208 43.9504 268.448 44.1237 267.781 44.4704C267.141 44.7904 266.595 45.217 266.141 45.7504C265.688 46.2837 265.328 46.897 265.061 47.5904C264.821 48.2837 264.661 48.9904 264.581 49.7104H274.901ZM291.005 40.8704C291.325 40.8704 291.685 40.897 292.085 40.9503C292.512 40.977 292.925 41.0304 293.325 41.1104C293.725 41.1637 294.085 41.2304 294.405 41.3103C294.752 41.3637 295.005 41.417 295.165 41.4704L294.525 44.7104C294.232 44.6037 293.738 44.4837 293.045 44.3504C292.378 44.1904 291.512 44.1104 290.445 44.1104C289.752 44.1104 289.058 44.1904 288.365 44.3504C287.698 44.4837 287.258 44.577 287.045 44.6304V62.1104H283.325V42.1904C284.205 41.8703 285.298 41.577 286.605 41.3103C287.912 41.017 289.378 40.8704 291.005 40.8704Z" fill="#2E3F51"/>
</svg>
