<?xml version="1.0" encoding="UTF-8"?>
<svg id="Ebene_1" xmlns="http://www.w3.org/2000/svg" version="1.1" viewBox="0 0 188.77 29.34">
  <!-- Generator: Adobe Illustrator 29.6.1, SVG Export Plug-In . SVG Version: 2.1.1 Build 9)  -->
  <defs>
    <style>
      .st0 {
        fill: #c0442d;
      }

      .st1 {
        fill: #c2b9a8;
      }
    </style>
  </defs>
  <g>
    <path class="st1" d="M41.95,25.21h-5.01V4.21h5.01v21Z"/>
    <path class="st1" d="M65.15,25.21h-4.81l-9.57-12.81v12.81h-5.01V4.21h4.8l9.57,12.81V4.21h5.02v21Z"/>
  </g>
  <g>
    <path class="st1" d="M79.65,25.17h-4.81l-9.57-12.81v12.81h-5.01V4.17h4.8l9.57,12.81V4.17h5.02v21Z"/>
    <path class="st1" d="M104.73,14.67c0,6.27-4.59,10.89-11.07,10.89s-11.07-4.62-11.07-10.89,4.59-10.89,11.07-10.89,11.07,4.62,11.07,10.89ZM87.81,14.67c0,3.6,2.43,6.09,5.85,6.09s5.85-2.49,5.85-6.09-2.43-6.09-5.85-6.09-5.85,2.49-5.85,6.09Z"/>
    <path class="st1" d="M127.18,8.84l-4.39,2.52c-1.09-1.78-2.82-2.77-5-2.77-3.31,0-5.77,2.49-5.77,6.09,0,3.9,2.68,6.09,5.79,6.09,2.13,0,3.87-.97,5.07-2.76l4.11,2.91c-1.92,2.86-5.12,4.65-9.13,4.65-6.48,0-11.05-4.53-11.05-10.89s4.57-10.89,11.05-10.89c4,0,7.54,1.88,9.33,5.05Z"/>
    <path class="st1" d="M135,12.26h8.83V4.17h5.01v21h-5.01v-8.28h-8.83v8.28h-5.01V4.17h5.01v8.08Z"/>
    <path class="st1" d="M173.02,25.27h-5.34l-1.59-4.41h-8.34l-1.59,4.41h-5.24l8.05-21h5.99l8.05,21ZM159.37,16.33h5.1l-2.55-7.08-2.55,7.08Z"/>
    <path class="st1" d="M188.77,8.92h-6.21v16.35h-5.01V8.92h-6.22v-4.65h17.44v4.65Z"/>
  </g>
  <g>
    <g>
      <path class="st0" d="M0,25.1l6.21-10.37v-.05L0,4.3l4.2-.05,6.34,10.43-6.34,10.38-4.21.04Z"/>
      <path class="st0" d="M25.14,25.05l-6.34-10.38,6.34-10.43,4.2.05-6.21,10.37v.05s6.21,10.37,6.21,10.37l-4.21-.04Z"/>
    </g>
    <g>
      <path class="st0" d="M25.03,4.21l-10.38,6.34L4.22,4.2l.05-4.2,10.37,6.21h.05S25.07,0,25.07,0l-.04,4.21Z"/>
      <path class="st0" d="M25.07,29.34l-10.37-6.21h-.05s-10.37,6.21-10.37,6.21l-.05-4.2,10.43-6.34,10.38,6.34.04,4.21Z"/>
    </g>
  </g>
</svg>