<svg width="145" height="40" viewBox="0 0 145 40" fill="none" xmlns="http://www.w3.org/2000/svg">
<g clip-path="url(#clip0_9654_176362)">
<path d="M4.81013 18.9873L0 16.2025V29.6203L16.7089 39.7468L23.038 35.6962V16.2025L11.8987 9.36709L16.7089 6.32911L28.3544 13.4177V32.9114L33.4177 29.6203V10.1266L16.7089 0L0 10.1266L16.7089 20.2532V33.1646L4.81013 26.3291V18.9873Z" fill="#474E68"/>
<path d="M49.0909 27.5798C47.7136 27.5798 46.4985 27.2963 45.4453 26.7292C44.4057 26.1486 43.5888 25.3317 42.9947 24.2786C42.4141 23.2119 42.1238 21.9562 42.1238 20.5115C42.1238 19.1073 42.4141 17.8786 42.9947 16.8254C43.5753 15.7723 44.4124 14.9554 45.5061 14.3748C46.6132 13.7807 47.95 13.4836 49.5162 13.4836C50.2318 13.4836 50.8936 13.5647 51.5012 13.7267C52.122 13.8887 52.7093 14.125 53.2633 14.4355L53.3443 17.271H53.1418L52.0076 15.1647C51.8319 14.8271 51.6699 14.584 51.5215 14.4355C51.3726 14.287 51.1838 14.1723 50.9544 14.0912C50.7382 14.0237 50.5356 13.9765 50.3466 13.9495C50.1711 13.909 49.9348 13.8887 49.6377 13.8887C48.8006 13.8887 48.058 14.1115 47.4099 14.5571C46.7753 15.0026 46.2825 15.7115 45.9314 16.6836C45.5803 17.6558 45.4048 18.9317 45.4048 20.5115C45.4048 22.0777 45.5668 23.3537 45.8909 24.3393C46.2284 25.325 46.701 26.0473 47.3086 26.5064C47.9162 26.952 48.6183 27.1748 49.4149 27.1748C49.5364 27.1748 49.6512 27.168 49.7592 27.1545C49.8807 27.1275 49.9955 27.1005 50.1035 27.0735C50.3601 27.033 50.5288 26.925 50.6099 26.7495C50.6911 26.5739 50.7316 26.3647 50.7316 26.1216V22.1115C50.7316 21.5849 50.4613 21.2609 49.9212 21.1393L48.9896 20.8963V20.6938H54.7012V20.8963L54.4177 20.9773C53.9043 21.1393 53.6481 21.4769 53.6481 21.99V26.3849C52.9458 26.7765 52.2304 27.0735 51.5012 27.276C50.7853 27.4786 49.982 27.5798 49.0909 27.5798ZM54.8526 27.2153V27.0128L55.2577 26.871C55.5276 26.79 55.7033 26.6685 55.7843 26.5064C55.879 26.3444 55.9261 26.1284 55.9261 25.8583V15.2457C55.9261 14.9756 55.879 14.7596 55.7843 14.5976C55.6896 14.4355 55.5073 14.3073 55.2374 14.2128L54.8526 14.0507V13.8482H59.7742C61.7858 13.8482 63.2374 14.2195 64.1286 14.9621C65.0334 15.6912 65.4855 16.6567 65.4855 17.8583C65.4855 18.6279 65.2967 19.3368 64.9185 19.9849C64.5539 20.6195 63.9463 21.1258 63.0957 21.5039C62.245 21.882 61.0972 22.071 59.6526 22.071H58.964V25.7976C58.964 26.3241 59.2273 26.6685 59.7539 26.8305L60.3615 27.0128V27.2153H54.8526ZM58.964 21.6659H59.7336C60.3954 21.6659 60.9352 21.5579 61.3539 21.3419C61.7726 21.1258 62.083 20.7478 62.2855 20.2077C62.4881 19.6676 62.5893 18.9182 62.5893 17.9596C62.5893 16.9874 62.4744 16.2313 62.245 15.6912C62.0288 15.1511 61.7048 14.7798 61.2729 14.5773C60.841 14.3613 60.3007 14.2533 59.6526 14.2533H58.964V21.6659ZM68.6921 27.2153V27.0128L69.5225 26.8102C70.0764 26.6887 70.3529 26.3511 70.3529 25.7976V14.2533H68.6314C68.1321 14.2533 67.7742 14.3883 67.558 14.6583C67.3423 14.9149 67.1124 15.2727 66.8693 15.7317L66.1402 17.1495H65.9377L66.039 13.8482H77.725L77.8061 17.1495H77.6035L76.8744 15.7317C76.645 15.2727 76.4223 14.9149 76.2061 14.6583C75.9904 14.3883 75.6324 14.2533 75.1326 14.2533H73.4111V25.7976C73.4111 26.3511 73.6881 26.6887 74.2415 26.8102L75.0719 27.0128V27.2153H68.6921Z" fill="#EE9B3C"/>
<path d="M78.6355 22.3545V21.8076H83.7393V22.3545H78.6355Z" fill="#404258"/>
<path d="M88.3985 27.5191C87.5342 27.5191 86.8593 27.303 86.3732 26.871C85.9003 26.4389 85.6643 25.7503 85.6643 24.8052V17.8786H84.2668V17.6761L84.7529 17.595C85.1711 17.5005 85.5291 17.3655 85.8263 17.19C86.1367 17.0144 86.4405 16.7782 86.7377 16.4811L88.3985 14.6381H88.601L88.5403 17.4735H90.8086V17.8786H88.52V25.1697C88.52 25.6423 88.6213 26.0001 88.8238 26.2432C89.0395 26.4862 89.3099 26.6077 89.6339 26.6077C89.9175 26.6077 90.1671 26.5402 90.3833 26.4052C90.599 26.2567 90.8152 26.0609 91.0314 25.8178L91.2339 26.0204C90.9636 26.4795 90.5924 26.844 90.12 27.114C89.6471 27.3841 89.0734 27.5191 88.3985 27.5191ZM91.4633 27.2153V27.0128L91.7671 26.9318C92.037 26.8507 92.2193 26.7292 92.3139 26.5672C92.4218 26.4052 92.476 26.1959 92.476 25.9394V19.6001C92.476 19.303 92.4218 19.087 92.3139 18.952C92.2193 18.8035 92.037 18.7022 91.7671 18.6482L91.4633 18.5672V18.3647L94.9468 17.19L95.1494 17.3925L95.3317 19.1343V19.2963C95.5205 18.9182 95.7636 18.5739 96.0608 18.2634C96.3711 17.9394 96.7089 17.6761 97.0734 17.4735C97.4517 17.271 97.8228 17.1697 98.1874 17.1697C98.7003 17.1697 99.0922 17.3115 99.362 17.595C99.6319 17.8786 99.7671 18.2364 99.7671 18.6685C99.7671 19.1276 99.6319 19.4853 99.362 19.7419C99.1053 19.9849 98.7949 20.1064 98.4304 20.1064C97.8633 20.1064 97.3636 19.8229 96.9317 19.2558L96.8911 19.2153C96.756 19.0263 96.601 18.925 96.4253 18.9115C96.2496 18.8845 96.0876 18.9655 95.9392 19.1545C95.8041 19.2761 95.6896 19.4246 95.5949 19.6001C95.5139 19.7621 95.4329 19.9512 95.3519 20.1672V25.8178C95.3519 26.3579 95.5884 26.6955 96.0608 26.8305L96.7089 27.0128V27.2153H91.4633ZM102.52 27.5191C101.737 27.5191 101.075 27.2963 100.535 26.8507C100.009 26.4052 99.7453 25.7638 99.7453 24.9267C99.7453 24.2921 100.069 23.7115 100.717 23.1849C101.366 22.6448 102.385 22.2398 103.776 21.9697C103.991 21.9292 104.234 21.8887 104.505 21.8482C104.775 21.7942 105.058 21.7402 105.355 21.6862V20.0862C105.355 19.1681 105.241 18.5267 105.011 18.1621C104.795 17.7841 104.451 17.595 103.978 17.595C103.654 17.595 103.397 17.703 103.209 17.9191C103.019 18.1216 102.898 18.4795 102.844 18.9925L102.804 19.2153C102.776 19.7959 102.634 20.2212 102.378 20.4913C102.122 20.7613 101.804 20.8963 101.426 20.8963C101.075 20.8963 100.785 20.7883 100.555 20.5723C100.326 20.3562 100.211 20.0659 100.211 19.7014C100.211 19.1478 100.4 18.682 100.778 18.3039C101.17 17.9258 101.683 17.6423 102.317 17.4533C102.952 17.2643 103.641 17.1697 104.383 17.1697C105.585 17.1697 106.51 17.4668 107.158 18.0609C107.819 18.6415 108.15 19.5934 108.15 20.9166V25.3925C108.15 26.0001 108.434 26.3039 109.001 26.3039H109.447L109.629 26.4659C109.372 26.79 109.089 27.0398 108.778 27.2153C108.481 27.3908 108.056 27.4786 107.502 27.4786C106.908 27.4786 106.435 27.3436 106.085 27.0735C105.747 26.79 105.524 26.4187 105.416 25.9596C105.011 26.3917 104.592 26.763 104.161 27.0735C103.742 27.3706 103.195 27.5191 102.52 27.5191ZM103.755 26.2837C104.025 26.2837 104.275 26.2229 104.505 26.1014C104.748 25.9663 105.031 25.7638 105.355 25.4938V22.0913C105.22 22.1182 105.085 22.1453 104.95 22.1723C104.815 22.1993 104.66 22.2263 104.485 22.2533C103.863 22.4153 103.364 22.6921 102.986 23.0837C102.621 23.4617 102.439 23.9748 102.439 24.6229C102.439 25.1765 102.567 25.595 102.824 25.8786C103.08 26.1486 103.391 26.2837 103.755 26.2837ZM112.071 16.1166C111.612 16.1166 111.22 15.9748 110.896 15.6913C110.586 15.3942 110.43 15.0229 110.43 14.5773C110.43 14.1182 110.586 13.7469 110.896 13.4634C111.22 13.1799 111.612 13.0381 112.071 13.0381C112.53 13.0381 112.915 13.1799 113.225 13.4634C113.536 13.7469 113.691 14.1182 113.691 14.5773C113.691 15.0229 113.536 15.3942 113.225 15.6913C112.915 15.9748 112.53 16.1166 112.071 16.1166ZM109.681 27.2153V27.0128L109.965 26.9318C110.234 26.8507 110.417 26.7292 110.511 26.5672C110.619 26.4052 110.673 26.1891 110.673 25.9191V19.5799C110.673 19.2963 110.619 19.087 110.511 18.952C110.417 18.8035 110.234 18.7022 109.965 18.6482L109.681 18.5875V18.3849L113.387 17.19L113.59 17.3925L113.529 20.2685V25.9394C113.529 26.2094 113.576 26.4254 113.671 26.5875C113.779 26.7495 113.961 26.871 114.218 26.952L114.42 27.0128V27.2153H109.681ZM114.912 27.2153V27.0128L115.195 26.9318C115.668 26.7967 115.904 26.4659 115.904 25.9394V19.6001C115.904 19.303 115.857 19.087 115.763 18.952C115.668 18.8035 115.486 18.7022 115.216 18.6482L114.912 18.5672V18.3647L118.375 17.19L118.578 17.3925L118.74 18.6077C119.212 18.1891 119.745 17.8448 120.34 17.5748C120.934 17.3048 121.521 17.1697 122.102 17.1697C122.993 17.1697 123.674 17.4128 124.147 17.8988C124.633 18.3849 124.876 19.1276 124.876 20.1267V25.9596C124.876 26.4862 125.133 26.817 125.646 26.952L125.828 27.0128V27.2153H121.049V27.0128L121.312 26.9318C121.784 26.7832 122.021 26.4524 122.021 25.9394V19.4786C122.021 18.6144 121.588 18.1824 120.725 18.1824C120.13 18.1824 119.482 18.4795 118.78 19.0735V25.9596C118.78 26.4862 119.016 26.817 119.489 26.952L119.671 27.0128V27.2153H114.912ZM131.299 17.1697C132.177 17.1697 132.926 17.352 133.547 17.7166C134.168 18.0676 134.641 18.5537 134.965 19.1748C135.302 19.7824 135.471 20.4777 135.471 21.2609C135.471 21.4094 135.464 21.5647 135.451 21.7267C135.437 21.8752 135.411 22.0102 135.37 22.1318H129.335C129.348 23.59 129.605 24.6431 130.104 25.2913C130.617 25.9258 131.373 26.2432 132.373 26.2432C133.048 26.2432 133.594 26.1351 134.013 25.9191C134.431 25.703 134.823 25.3858 135.188 24.9672L135.39 25.1495C134.972 25.8921 134.411 26.4727 133.709 26.8913C133.021 27.3098 132.19 27.5191 131.218 27.5191C130.259 27.5191 129.409 27.3166 128.666 26.9115C127.924 26.4929 127.343 25.8988 126.925 25.1292C126.506 24.3596 126.297 23.4415 126.297 22.3748C126.297 21.2676 126.54 20.3292 127.026 19.5596C127.512 18.7765 128.133 18.1824 128.889 17.7773C129.659 17.3723 130.462 17.1697 131.299 17.1697ZM131.238 17.5748C130.847 17.5748 130.509 17.6963 130.226 17.9394C129.955 18.1689 129.74 18.5875 129.578 19.195C129.429 19.7891 129.348 20.633 129.335 21.7267H132.798C132.933 20.2549 132.879 19.195 132.636 18.5469C132.393 17.8988 131.927 17.5748 131.238 17.5748ZM136.075 27.2153V27.0128L136.379 26.9318C136.65 26.8507 136.832 26.7292 136.926 26.5672C137.034 26.4052 137.088 26.1959 137.088 25.9394V19.6001C137.088 19.303 137.034 19.087 136.926 18.952C136.832 18.8035 136.65 18.7022 136.379 18.6482L136.075 18.5672V18.3647L139.559 17.19L139.762 17.3925L139.944 19.1343V19.2963C140.133 18.9182 140.376 18.5739 140.673 18.2634C140.984 17.9394 141.321 17.6761 141.686 17.4735C142.064 17.271 142.435 17.1697 142.799 17.1697C143.313 17.1697 143.704 17.3115 143.974 17.595C144.245 17.8786 144.379 18.2364 144.379 18.6685C144.379 19.1276 144.245 19.4853 143.974 19.7419C143.718 19.9849 143.407 20.1064 143.043 20.1064C142.475 20.1064 141.976 19.8229 141.544 19.2558L141.503 19.2153C141.369 19.0263 141.213 18.925 141.037 18.9115C140.862 18.8845 140.7 18.9655 140.551 19.1545C140.417 19.2761 140.302 19.4246 140.207 19.6001C140.126 19.7621 140.045 19.9512 139.964 20.1672V25.8178C139.964 26.3579 140.201 26.6955 140.673 26.8305L141.321 27.0128V27.2153H136.075Z" fill="#474E68"/>
</g>
<defs>
<clipPath id="clip0_9654_176362">
<rect width="144.81" height="40" fill="white"/>
</clipPath>
</defs>
</svg>
